<svg width="60" height="60" viewBox="0 0 60 60" fill="none" xmlns="http://www.w3.org/2000/svg">
<circle cx="30" cy="30" r="30" fill="#282828"/>
<g clip-path="url(#clip0_3528_23577)">
<path d="M22.2 41.0008H36.8667H36.8718C36.9415 41.0008 37.0115 40.9975 37.0815 40.9909C37.6337 40.9233 38.1415 40.6545 38.5078 40.2358C38.874 39.8172 39.073 39.2782 39.0667 38.722V36.2341C39.0667 35.9424 38.9508 35.6626 38.7445 35.4563C38.5382 35.25 38.2584 35.1341 37.9667 35.1341H35.4V28.6346L41.6333 22.4057C41.8681 22.1691 41.9998 21.8494 41.9998 21.5161C41.9998 21.1829 41.8681 20.8631 41.6333 20.6266L40.3742 19.3675C40.1385 19.1322 39.819 19 39.486 19C39.1529 19 38.8334 19.1322 38.5977 19.3675L35.4 22.5655V20.1008C35.4 19.8091 35.2841 19.5293 35.0778 19.323C34.8715 19.1167 34.5917 19.0008 34.3 19.0008H21.1C20.8083 19.0008 20.5285 19.1167 20.3222 19.323C20.1159 19.5293 20 19.8091 20 20.1008V38.8008C20.0006 39.3841 20.2326 39.9433 20.645 40.3558C21.0575 40.7682 21.6167 41.0002 22.2 41.0008ZM37.9667 35.8675C38.0639 35.8675 38.1572 35.9061 38.2259 35.9749C38.2947 36.0436 38.3333 36.1369 38.3333 36.2341V38.722C38.3412 39.0961 38.2109 39.4599 37.9674 39.744C37.7239 40.0281 37.3842 40.2125 37.0133 40.262C36.809 40.2833 36.6025 40.261 36.4074 40.1965C36.2123 40.1321 36.0332 40.0269 35.8818 39.888C35.7303 39.7502 35.6091 39.5824 35.5262 39.3952C35.4432 39.208 35.4002 39.0056 35.4 38.8008V35.8675H37.9667ZM29.1667 37.3341H30.6333V38.0675H29.1667V37.3341ZM31 36.6008H24.4C24.3028 36.6008 24.2095 36.5622 24.1407 36.4934C24.072 36.4246 24.0333 36.3314 24.0333 36.2341V33.3008C24.0333 33.2035 23.9947 33.1103 23.9259 33.0415C23.8572 32.9728 23.7639 32.9341 23.6667 32.9341C23.4491 32.9341 23.2364 32.8696 23.0555 32.7487C22.8746 32.6279 22.7337 32.4561 22.6504 32.2551C22.5671 32.0541 22.5454 31.8329 22.5878 31.6195C22.6302 31.4061 22.735 31.2101 22.8888 31.0563C23.0427 30.9025 23.2387 30.7977 23.4521 30.7553C23.6654 30.7128 23.8866 30.7346 24.0876 30.8179C24.2886 30.9011 24.4604 31.0421 24.5813 31.223C24.7022 31.4039 24.7667 31.6166 24.7667 31.8341V34.4008C24.7667 34.5953 24.8439 34.7818 24.9815 34.9193C25.119 35.0569 25.3055 35.1341 25.5 35.1341H29.9C30.0945 35.1341 30.281 35.0569 30.4185 34.9193C30.5561 34.7818 30.6333 34.5953 30.6333 34.4008V31.8341C30.6335 31.7739 30.6386 31.7138 30.6487 31.6545L32.6071 31.1639C32.7007 31.284 32.7672 31.423 32.8022 31.5712C32.8421 31.7333 32.8445 31.9023 32.8095 32.0654C32.7744 32.2286 32.7026 32.3816 32.5996 32.5129C32.4966 32.6443 32.3651 32.7504 32.215 32.8234C32.0649 32.8964 31.9002 32.9342 31.7333 32.9341C31.6361 32.9341 31.5428 32.9728 31.4741 33.0415C31.4053 33.1103 31.3667 33.2035 31.3667 33.3008V36.2341C31.3667 36.3314 31.328 36.4246 31.2593 36.4934C31.1905 36.5622 31.0972 36.6008 31 36.6008ZM24.7667 37.3341H26.2333V38.0675H24.7667V37.3341ZM37.4101 21.5928L38.2266 20.7762L40.2257 22.7749L39.4088 23.5911L37.4101 21.5928ZM37.6301 22.8508L31.5133 28.969L30.773 28.2287L36.8916 22.1112L37.6301 22.8508ZM25.5 33.6675H29.9V34.4008H25.5V33.6675ZM29.9213 31.0806L30.4529 28.9455L32.0538 30.5464L29.9213 31.0806ZM30.1119 27.854C29.9891 27.9773 29.9015 28.1312 29.8582 28.2998L29.189 30.9875C29.159 31.1005 29.159 31.2194 29.1892 31.3323C29.2194 31.4453 29.2786 31.5484 29.361 31.6314C29.4242 31.6958 29.4996 31.7469 29.5829 31.7817C29.6661 31.8165 29.7555 31.8343 29.8457 31.8341C29.8637 31.8341 29.8824 31.829 29.9007 31.8275L29.9 31.8341V32.9341H25.5V31.8341C25.5011 31.4115 25.3555 31.0016 25.088 30.6744C24.8205 30.3472 24.4477 30.123 24.0333 30.04V30.0008C24.0343 29.1259 24.3823 28.2871 25.001 27.6684C25.6196 27.0498 26.4584 26.7018 27.3333 26.7008H28.0667C28.9166 26.7016 29.7336 27.0299 30.3477 27.6175L30.1119 27.854ZM32.7706 30.227L32.0318 29.4875L38.15 23.3693L38.8903 24.1096L32.7706 30.227ZM39.4861 19.7341C39.5547 19.734 39.6227 19.7474 39.6861 19.7736C39.7495 19.7998 39.8072 19.8382 39.8557 19.8867L41.1127 21.144C41.2107 21.2428 41.2657 21.3764 41.2657 21.5156C41.2657 21.6548 41.2107 21.7884 41.1127 21.8872L40.7442 22.2564L38.7451 20.2581L39.1162 19.887C39.1648 19.8385 39.2224 19.8 39.2859 19.7737C39.3494 19.7475 39.4174 19.734 39.4861 19.7341ZM20.7333 20.1008C20.7333 20.0035 20.772 19.9103 20.8407 19.8415C20.9095 19.7728 21.0028 19.7341 21.1 19.7341H34.3C34.3972 19.7341 34.4905 19.7728 34.5593 19.8415C34.628 19.9103 34.6667 20.0035 34.6667 20.1008V23.2989L30.8654 27.0994C30.1142 26.374 29.1109 25.9682 28.0667 25.9675H27.3333C26.264 25.9687 25.2389 26.3941 24.4827 27.1502C23.7266 27.9063 23.3013 28.9315 23.3 30.0008V30.0404C23.2802 30.0444 23.2604 30.0459 23.2406 30.0507C22.9101 30.1271 22.6078 30.2948 22.3679 30.5347C22.1281 30.7745 21.9604 31.0769 21.8839 31.4073C21.8197 31.6782 21.8177 31.9601 21.8781 32.2319C21.9385 32.5036 22.0597 32.7581 22.2326 32.9763C22.4999 33.3137 22.878 33.5456 23.3 33.6308V36.2341C23.3009 36.4608 23.3719 36.6817 23.5032 36.8665C23.6344 37.0513 23.8196 37.1911 24.0333 37.2667V38.0675C24.0333 38.262 24.1106 38.4485 24.2481 38.586C24.3856 38.7235 24.5722 38.8008 24.7667 38.8008H26.2333C26.4278 38.8008 26.6144 38.7235 26.7519 38.586C26.8894 38.4485 26.9667 38.262 26.9667 38.0675V37.3341H28.4333V38.0675C28.4333 38.262 28.5106 38.4485 28.6481 38.586C28.7856 38.7235 28.9722 38.8008 29.1667 38.8008H30.6333C30.8278 38.8008 31.0144 38.7235 31.1519 38.586C31.2894 38.4485 31.3667 38.262 31.3667 38.0675V37.2667C31.5804 37.1911 31.7656 37.0513 31.8968 36.8665C32.0281 36.6817 32.0991 36.4608 32.1 36.2341V33.6308C32.5222 33.5458 32.9007 33.3139 33.1681 32.9763C33.341 32.7582 33.4622 32.5039 33.5226 32.2322C33.5831 31.9606 33.5812 31.6788 33.5172 31.4081C33.4647 31.1874 33.3706 30.9789 33.24 30.7935L34.6667 29.3676V38.8008C34.6673 39.3419 34.8668 39.8639 35.2273 40.2675H22.2C21.811 40.2675 21.438 40.1129 21.1629 39.8379C20.8879 39.5628 20.7333 39.1898 20.7333 38.8008V20.1008Z" fill="white"/>
<path d="M25.7046 24.31C25.7442 24.4687 25.8356 24.6096 25.9645 24.7103C26.0933 24.811 26.2521 24.8658 26.4156 24.8659H28.9822C29.1458 24.8658 29.3045 24.811 29.4334 24.7103C29.5622 24.6096 29.6536 24.4687 29.6932 24.31L30.2432 22.11C30.2702 22.002 30.2721 21.8892 30.249 21.7803C30.2259 21.6713 30.1783 21.5691 30.1097 21.4813C30.0412 21.3935 29.9536 21.3225 29.8535 21.2736C29.7535 21.2248 29.6436 21.1993 29.5322 21.1992H25.8656C25.7542 21.1993 25.6443 21.2248 25.5443 21.2736C25.4442 21.3225 25.3566 21.3935 25.2881 21.4813C25.2196 21.5691 25.1719 21.6713 25.1488 21.7803C25.1257 21.8892 25.1277 22.002 25.1546 22.11L25.7046 24.31ZM28.9822 24.1326H28.0656V21.9326H29.5322L28.9822 24.1326ZM27.3322 21.9326V24.1326H26.4156L25.8656 21.9326H27.3322Z" fill="white"/>
</g>
<defs>
<clipPath id="clip0_3528_23577">
<rect width="22" height="22" fill="white" transform="translate(20 19)"/>
</clipPath>
</defs>
</svg>
