<svg width="14" height="13" viewBox="0 0 14 13" fill="none" xmlns="http://www.w3.org/2000/svg">
<path d="M4.49762 8.33812H4.49826C4.49879 8.33812 4.49932 8.33801 4.49985 8.33801H11.9147C12.0972 8.33801 12.2577 8.21457 12.3079 8.03565L13.9438 2.19904C13.979 2.07321 13.9543 1.93794 13.8771 1.83349C13.7998 1.72905 13.6789 1.6676 13.5506 1.6676H3.55443L3.26208 0.326464C3.22043 0.13571 3.0545 0 2.8628 0H0.408971C0.183078 0 0 0.186628 0 0.416901C0 0.647173 0.183078 0.833801 0.408971 0.833801H2.53477C2.58653 1.07146 3.93379 7.25179 4.01132 7.60735C3.57669 7.79995 3.27177 8.24171 3.27177 8.75491C3.27177 9.44454 3.82218 10.0056 4.49868 10.0056H11.9147C12.1406 10.0056 12.3237 9.81899 12.3237 9.58871C12.3237 9.35844 12.1406 9.17181 11.9147 9.17181H4.49868C4.27322 9.17181 4.08971 8.98475 4.08971 8.75491C4.08971 8.5254 4.27258 8.33866 4.49762 8.33812ZM13.0084 2.5014L11.6062 7.50421H4.82671L3.73612 2.5014H13.0084Z" fill="white"/>
<path d="M4.08984 11.2566C4.08984 11.9462 4.64025 12.5073 5.31676 12.5073C5.99326 12.5073 6.54367 11.9462 6.54367 11.2566C6.54367 10.5669 5.99326 10.0059 5.31676 10.0059C4.64025 10.0059 4.08984 10.5669 4.08984 11.2566ZM5.31676 10.8397C5.54222 10.8397 5.72573 11.0267 5.72573 11.2566C5.72573 11.4864 5.54222 11.6735 5.31676 11.6735C5.09129 11.6735 4.90779 11.4864 4.90779 11.2566C4.90779 11.0267 5.09129 10.8397 5.31676 10.8397Z" fill="white"/>
<path d="M9.86914 11.2566C9.86914 11.9462 10.4195 12.5073 11.0961 12.5073C11.7726 12.5073 12.323 11.9462 12.323 11.2566C12.323 10.5669 11.7726 10.0059 11.0961 10.0059C10.4195 10.0059 9.86914 10.5669 9.86914 11.2566ZM11.0961 10.8397C11.3215 10.8397 11.505 11.0267 11.505 11.2566C11.505 11.4864 11.3215 11.6735 11.0961 11.6735C10.8706 11.6735 10.6871 11.4864 10.6871 11.2566C10.6871 11.0267 10.8706 10.8397 11.0961 10.8397Z" fill="white"/>
</svg>
