<svg width="13" height="13" viewBox="0 0 13 13" fill="none" xmlns="http://www.w3.org/2000/svg">
<path fill-rule="evenodd" clip-rule="evenodd" d="M4.84307 0C2.17044 0 0 2.17044 0 4.84307C0 7.5157 2.17044 9.68613 4.84307 9.68613C7.5157 9.68613 9.68613 7.5157 9.68613 4.84307C9.68613 2.17044 7.5157 0 4.84307 0ZM4.84307 0.745087C7.10515 0.745087 8.94105 2.58098 8.94105 4.84307C8.94105 7.10515 7.10515 8.94105 4.84307 8.94105C2.58098 8.94105 0.745087 7.10515 0.745087 4.84307C0.745087 2.58098 2.58098 0.745087 4.84307 0.745087Z" fill="white"/>
<path fill-rule="evenodd" clip-rule="evenodd" d="M12.5569 12.03L8.26593 7.73983C8.12064 7.59454 7.88445 7.59454 7.73916 7.73983C7.59386 7.88512 7.59386 8.12131 7.73916 8.26661L12.0294 12.5576C12.1754 12.7029 12.4109 12.7029 12.5569 12.5576C12.7022 12.4115 12.7022 12.1761 12.5569 12.03Z" fill="white"/>
</svg>
