<svg width="15" height="15" viewBox="0 0 15 15" fill="none" xmlns="http://www.w3.org/2000/svg">
<path d="M13.3561 6.00763C13.167 5.77516 12.9882 5.55554 12.9187 5.34131C12.8443 5.11235 12.8591 4.82001 12.8747 4.51052C12.8977 4.05767 12.9214 3.58932 12.6609 3.23149C12.3977 2.86983 11.9424 2.74777 11.5021 2.62966C11.2049 2.55001 10.9243 2.47476 10.7334 2.33578C10.5462 2.19955 10.3902 1.95818 10.2248 1.70264C9.97554 1.31713 9.7178 0.918436 9.28637 0.77825C8.87284 0.643997 8.4391 0.809781 8.01965 0.969961C7.73872 1.0773 7.44814 1.18826 7.19996 1.18826C6.95177 1.18826 6.66119 1.0773 6.38026 0.969961C5.9607 0.809671 5.52718 0.644217 5.11354 0.77825C4.72353 0.905033 4.47469 1.24495 4.2532 1.58234C4.18498 1.68627 4.21398 1.82569 4.3178 1.89391C4.42206 1.96203 4.56126 1.93335 4.62937 1.82931C4.80691 1.55883 5.00137 1.28791 5.25252 1.20628C5.51531 1.12146 5.85732 1.25198 6.21965 1.3903C6.5388 1.51225 6.86872 1.63826 7.19996 1.63826C7.53119 1.63826 7.86111 1.51225 8.18026 1.3903C8.54259 1.25198 8.88515 1.12135 9.14728 1.20628C9.42677 1.29703 9.6309 1.61277 9.847 1.94698C10.0273 2.22581 10.2137 2.5142 10.4686 2.69965C10.7271 2.88785 11.0619 2.97749 11.3855 3.06429C11.7671 3.16668 12.1275 3.26325 12.2971 3.49627C12.4639 3.72544 12.4452 4.09579 12.4254 4.48778C12.4082 4.8244 12.3907 5.17245 12.4906 5.48029C12.5861 5.77439 12.8001 6.03741 13.0071 6.29174C13.2606 6.60309 13.5 6.89709 13.5 7.19954C13.5 7.502 13.2606 7.79599 13.0071 8.10734C12.8001 8.36168 12.5861 8.62469 12.4906 8.91868C12.3907 9.22663 12.4082 9.57468 12.4253 9.91141C12.4452 10.3034 12.4638 10.6737 12.2971 10.9029C12.1275 11.1359 11.7671 11.2326 11.3854 11.3349C11.0618 11.4216 10.7271 11.5113 10.4686 11.6994C10.2137 11.8849 10.0273 12.1733 9.847 12.4521C9.6309 12.7863 9.42677 13.1021 9.14739 13.1928C8.88536 13.2784 8.54281 13.1473 8.18026 13.0088C7.86111 12.8868 7.53119 12.7608 7.19995 12.7608C6.86872 12.7608 6.5388 12.8868 6.21964 13.0088C5.85743 13.1472 5.51487 13.2784 5.25263 13.1928C4.97313 13.1021 4.76901 12.7863 4.55291 12.4521C4.37262 12.1733 4.18619 11.8849 3.9313 11.6994C3.67279 11.5112 3.33804 11.4216 3.01438 11.3348C2.63283 11.2324 2.27237 11.1358 2.10285 10.9028C1.93596 10.6736 1.95475 10.3033 1.97453 9.9113C1.99166 9.57468 2.00924 9.22663 1.90927 8.91879C1.8138 8.62469 1.59978 8.36168 1.3928 8.10734C1.13935 7.79599 0.899953 7.502 0.899953 7.19954C0.899953 6.89709 1.13934 6.60309 1.3928 6.29174C1.59978 6.03741 1.8138 5.77439 1.90927 5.4804C2.00924 5.17245 1.99166 4.82441 1.97464 4.48767C1.95475 4.09568 1.93607 3.72533 2.10285 3.49616C2.27237 3.26314 2.63283 3.16646 3.01449 3.06418C3.33815 2.97749 3.67279 2.88774 3.9313 2.69965C4.03183 2.62648 4.05391 2.48585 3.98085 2.38533C3.90768 2.2848 3.76705 2.2625 3.66653 2.33578C3.47559 2.47476 3.195 2.54991 2.89793 2.62956C2.45759 2.74766 2.00221 2.86972 1.73898 3.23139C1.4786 3.58921 1.50233 4.05756 1.52518 4.51042C1.54078 4.82001 1.55561 5.11236 1.48124 5.34131C1.4117 5.55554 1.23295 5.77516 1.04376 6.00763C0.751856 6.36623 0.449951 6.73713 0.449951 7.19954C0.449951 7.66195 0.751856 8.03285 1.04376 8.39145C1.23295 8.62392 1.41169 8.84353 1.48124 9.05777C1.55562 9.28672 1.54078 9.57907 1.52518 9.88855C1.50222 10.3414 1.47849 10.8098 1.73898 11.1676C2.00221 11.5293 2.45748 11.6513 2.89782 11.7694C3.195 11.8491 3.47559 11.9243 3.66653 12.0633C3.85374 12.1995 4.00974 12.4409 4.17508 12.6964C4.42436 13.0819 4.6821 13.4806 5.11354 13.6208C5.54225 13.756 5.96247 13.5862 6.38026 13.4291C6.66118 13.3218 6.95177 13.2108 7.19995 13.2108C7.44813 13.2108 7.73872 13.3218 8.01964 13.4291C8.4391 13.5893 8.87306 13.7548 9.28636 13.6208C9.7178 13.4806 9.97554 13.0819 10.2248 12.6964C10.3902 12.4409 10.5462 12.1995 10.7334 12.0633C10.9243 11.9243 11.2049 11.8492 11.502 11.7695C11.9423 11.6514 12.3977 11.5294 12.6609 11.1677C12.9213 10.8099 12.8976 10.3415 12.8747 9.88866C12.8591 9.57907 12.8443 9.28672 12.9187 9.05777C12.9882 8.84353 13.167 8.62392 13.3561 8.39145C13.648 8.03285 13.95 7.66195 13.95 7.19954C13.95 6.73713 13.6481 6.36622 13.3561 6.00763Z" fill="#28282A"/>
<path d="M11.3894 8.86167C11.5073 8.90155 11.6348 8.8386 11.6748 8.72105C11.8408 8.23248 11.925 7.72085 11.925 7.2001C11.925 4.59469 9.80538 2.4751 7.19998 2.4751C4.59457 2.4751 2.47498 4.59469 2.47498 7.2001C2.47498 9.80551 4.59457 11.9251 7.19998 11.9251C8.85452 11.9251 10.3603 11.0826 11.228 9.67136C11.293 9.56545 11.26 9.42692 11.1542 9.36177C11.0479 9.29684 10.9096 9.32958 10.8446 9.4356C10.0595 10.7126 8.69697 11.4751 7.19997 11.4751C4.84275 11.4751 2.92497 9.55732 2.92497 7.2001C2.92497 4.84287 4.84275 2.9251 7.19998 2.9251C9.5572 2.9251 11.475 4.84287 11.475 7.2001C11.475 7.67141 11.3988 8.13448 11.2488 8.57624C11.2088 8.69391 11.2717 8.82168 11.3894 8.86167Z" fill="#28282A"/>
<path d="M9.16262 4.69287L6.18467 7.67072L5.23611 6.72238C5.14822 6.63448 5.00584 6.63448 4.91795 6.72238L4.28162 7.35871C4.19373 7.4466 4.19373 7.58898 4.28162 7.67687L6.02559 9.42084C6.06778 9.46303 6.12501 9.48676 6.18467 9.48676C6.24433 9.48676 6.30156 9.46303 6.34375 9.42084L10.1171 5.64736C10.205 5.55947 10.205 5.41709 10.1171 5.3292L9.48079 4.69287C9.39289 4.60498 9.25051 4.60498 9.16262 4.69287ZM6.18467 8.94359L4.75886 7.51779L5.07703 7.19962L6.02559 8.14796C6.11348 8.23585 6.25586 8.23585 6.34375 8.14796L9.3217 5.17012L9.63987 5.48828L6.18467 8.94359Z" fill="#28282A"/>
</svg>
